<svg width="24" height="24" viewBox="0 0 24 24" fill="none" xmlns="http://www.w3.org/2000/svg">
<path d="M21.8789 0C23.0503 0.000122649 23.9999 0.949701 24 2.12109C24 2.6836 23.7766 3.22329 23.3789 3.62109L15 12L23.3789 20.3789C23.7766 20.7767 24 21.3164 24 21.8789C23.9999 23.0503 23.0503 23.9999 21.8789 24C21.3164 24 20.7767 23.7766 20.3789 23.3789L12 15L3.62109 23.3789C3.22329 23.7766 2.6836 24 2.12109 24C0.949701 23.9999 0.000122649 23.0503 0 21.8789C0 21.3164 0.223411 20.7767 0.621094 20.3789L9 12L0.621094 3.62109C0.22341 3.22329 -2.45878e-08 2.6836 0 2.12109C0.000121876 0.9497 0.9497 0.000122598 2.12109 0C2.6836 2.45878e-08 3.22329 0.223411 3.62109 0.621094L12 9L20.3789 0.621094C20.7767 0.223411 21.3164 0 21.8789 0Z" fill="currentColor"/>
</svg>
