<svg width="24" height="24" viewBox="0 0 24 24" fill="none" xmlns="http://www.w3.org/2000/svg">
<path d="M9 22.5C9 23.3284 8.32843 24 7.5 24C6.67157 24 6 23.3284 6 22.5V21C6 19.3431 4.65685 18 3 18H1.5C0.671573 18 0 17.3284 0 16.5C0 15.6716 0.671573 15 1.5 15H4.5C6.98528 15 9 17.0147 9 19.5V22.5ZM22.5 15C23.3284 15 24 15.6716 24 16.5C24 17.3284 23.3284 18 22.5 18H21C19.3431 18 18 19.3431 18 21V22.5C18 23.3284 17.3284 24 16.5 24C15.6716 24 15 23.3284 15 22.5V19.5C15 17.0147 17.0147 15 19.5 15H22.5ZM9 4.5C9 6.98528 6.98528 9 4.5 9H1.5C0.671573 9 0 8.32843 0 7.5C0 6.67157 0.671573 6 1.5 6H3C4.65685 6 6 4.65685 6 3V1.5C6 0.671573 6.67157 0 7.5 0C8.32843 0 9 0.671573 9 1.5V4.5ZM18 3C18 4.65685 19.3431 6 21 6H22.5C23.3284 6 24 6.67157 24 7.5C24 8.32843 23.3284 9 22.5 9H19.5C17.0147 9 15 6.98528 15 4.5V1.5C15 0.671573 15.6716 0 16.5 0C17.3284 0 18 0.671573 18 1.5V3Z" fill="currentColor"/>
</svg>
