<svg width="24" height="24" viewBox="0 0 24 24" fill="none" xmlns="http://www.w3.org/2000/svg">
<path d="M12 0C18.6274 0 24 5.37257 24 12C24 17.3497 20.4987 21.88 15.6631 23.4287C15.3091 23.371 15.1748 23.0903 15.1748 22.8427C15.1748 22.4475 15.1885 21.1569 15.1885 19.5537C15.1885 18.4349 14.7929 17.7046 14.3486 17.333C17.1046 17.0364 19.9999 16.0219 20 11.4179C20 10.1095 19.5197 9.03973 18.7266 8.20018C18.8548 7.89883 19.2793 6.67851 18.6055 5.02734C18.5992 5.02542 17.559 4.71034 15.2051 6.25585C14.2163 5.99019 13.1568 5.85734 12.1055 5.85253C11.0531 5.85735 9.99462 5.99017 9.00781 6.25585C6.64352 4.7049 5.60352 5.02734 5.60352 5.02734C4.93171 6.67842 5.35517 7.89777 5.4834 8.1992C4.69131 9.03875 4.20801 10.1086 4.20801 11.417C4.20806 16.0103 7.0977 17.0385 9.84668 17.3418C9.49187 17.6412 9.17186 18.1702 9.06055 18.9453C8.35491 19.2514 6.56414 19.7813 5.45996 17.9482C5.45863 17.9459 4.80347 16.7976 3.5625 16.7129C3.5625 16.7129 2.35516 16.6985 3.47754 17.4424C3.47754 17.4424 4.29002 17.8108 4.85254 19.1963C4.85954 19.2166 5.59661 21.3315 9.02148 20.6103C9.02645 21.6111 9.03807 22.5553 9.03809 22.8418C9.03809 23.1277 8.85308 23.4574 8.3623 23.4375C3.51344 21.8966 0 17.3591 0 12C0 5.37257 5.37258 0 12 0Z" fill="currentColor"/>
</svg>
