<svg width="24" height="24" viewBox="0 0 24 24" fill="none" xmlns="http://www.w3.org/2000/svg">
<path d="M24 22C24 23.1046 23.1046 24 22 24H2C0.89543 24 0 23.1046 0 22C0 20.8954 0.895431 20 2 20H22C23.1046 20 24 20.8954 24 22ZM16 8C16 8.55228 16.4477 9 17 9H17.7732C18.636 9 19.0938 10.0195 18.5206 10.6644L12.7474 17.1592C12.3496 17.6067 11.6504 17.6067 11.2526 17.1592L5.47943 10.6644C4.90619 10.0195 5.364 9 6.22684 9H7C7.55228 9 8 8.55228 8 8V1C8 0.447715 8.44772 0 9 0H15C15.5523 0 16 0.447715 16 1V8Z" fill="currentColor"/>
</svg>
