<svg width="24" height="24" viewBox="0 0 24 24" fill="none" xmlns="http://www.w3.org/2000/svg">
<path d="M1.5 15C2.32843 15 3 15.6716 3 16.5V18C3 19.6569 4.34315 21 6 21H7.5C8.32843 21 9 21.6716 9 22.5C9 23.3284 8.32843 24 7.5 24H4.5C2.01472 24 0 21.9853 0 19.5V16.5C0 15.6716 0.671573 15 1.5 15ZM24 19.5C24 21.9853 21.9853 24 19.5 24H16.5C15.6716 24 15 23.3284 15 22.5C15 21.6716 15.6716 21 16.5 21H18C19.6569 21 21 19.6569 21 18V16.5C21 15.6716 21.6716 15 22.5 15C23.3284 15 24 15.6716 24 16.5V19.5ZM24 7.5C24 8.32843 23.3284 9 22.5 9C21.6716 9 21 8.32843 21 7.5V6C21 4.34315 19.6569 3 18 3H16.5C15.6716 3 15 2.32843 15 1.5C15 0.671573 15.6716 0 16.5 0H19.5C21.9853 0 24 2.01472 24 4.5V7.5ZM9 1.5C9 2.32843 8.32843 3 7.5 3H6C4.34315 3 3 4.34315 3 6V7.5C3 8.32843 2.32843 9 1.5 9C0.671573 9 0 8.32843 0 7.5V4.5C0 2.01472 2.01472 0 4.5 0H7.5C8.32843 0 9 0.671573 9 1.5Z" fill="currentColor"/>
</svg>
