<svg viewBox="0 0 24 24" fill="none" xmlns="http://www.w3.org/2000/svg">
  <path class="scroll-to-top-icon" d="M12 0C18.6273 0 23.9999 5.3727 24 12C24 18.6274 18.6274 24 12 24C5.37258 24 0 18.6274 0 12C0.000131942 5.3727 5.37266 0 12 0ZM12.707 8.71875C12.3165 8.32821 11.6835 8.32821 11.293 8.71875L6.63184 13.3799C6.35647 13.6556 6.35632 14.1023 6.63184 14.3779C6.90755 14.6536 7.35515 14.6536 7.63086 14.3779L11.293 10.7148C11.6834 10.3246 12.3165 10.3246 12.707 10.7148L16.3701 14.3779C16.6458 14.6533 17.0926 14.6535 17.3682 14.3779C17.6436 14.1023 17.6435 13.6556 17.3682 13.3799L12.707 8.71875Z" fill="#F5F5F5"/>
</svg>

