<svg width="24" height="18" viewBox="0 0 24 18" fill="none" xmlns="http://www.w3.org/2000/svg">
  <path d="M20.348 1.52023C23.0585 5.44291 24.3971 9.86758 23.8967 14.9614C23.8946 14.983 23.8832 15.0027 23.8652 15.0157C21.8126 16.4993 19.8239 17.3996 17.8631 17.9967C17.8478 18.0013 17.8315 18.001 17.8164 17.996C17.8012 17.991 17.7881 17.9814 17.7788 17.9687C17.3258 17.3483 16.9142 16.6942 16.5536 16.0073C16.5329 15.9669 16.5518 15.9181 16.5944 15.9022C17.2481 15.6598 17.8697 15.3692 18.4676 15.0252C18.5147 14.998 18.5177 14.9316 18.4742 14.8997C18.3473 14.807 18.2216 14.7095 18.1013 14.6121C18.0788 14.594 18.0485 14.5905 18.023 14.6026C14.1413 16.367 9.88909 16.367 5.9615 14.6026C5.936 14.5914 5.9057 14.5952 5.8838 14.6129C5.7638 14.7104 5.6378 14.807 5.5121 14.8997C5.4686 14.9316 5.4722 14.998 5.5196 15.0252C6.1175 15.3627 6.7391 15.6598 7.3919 15.9034C7.4342 15.9193 7.4543 15.9669 7.4333 16.0073C7.0805 16.6951 6.6689 17.3491 6.2075 17.9695C6.1874 17.9946 6.1544 18.0062 6.1232 17.9967C4.1717 17.3996 2.18301 16.4993 0.130411 15.0157C0.113311 15.0027 0.101011 14.9821 0.0992107 14.9605C-0.318989 10.5544 0.53331 6.09315 3.6446 1.51935C3.6521 1.50724 3.6635 1.49779 3.6767 1.49218C5.2076 0.800604 6.8477 0.291813 8.5619 0.00124481C8.5931 -0.00347988 8.6243 0.0106942 8.6405 0.0378612C8.8523 0.406978 9.0944 0.880333 9.25819 1.26717C11.0651 0.995497 12.9002 0.995497 14.7449 1.26717C14.9087 0.888601 15.1424 0.406978 15.3533 0.0378612C15.3608 0.0243839 15.3724 0.0135867 15.3866 0.00701094C15.4007 0.000435179 15.4165 -0.0015829 15.4319 0.00124481C17.147 0.292699 18.7871 0.80149 20.3168 1.49218C20.3303 1.49779 20.3414 1.50724 20.348 1.52023ZM10.1768 9.89771C10.1957 8.59517 9.2309 7.51735 8.0198 7.51735C6.8186 7.51735 5.8631 8.58572 5.8631 9.89771C5.8631 11.2094 6.8375 12.2778 8.0198 12.2778C9.2213 12.2778 10.1768 11.2094 10.1768 9.89771ZM18.1514 9.89771C18.1703 8.59517 17.2055 7.51735 15.9947 7.51735C14.7932 7.51735 13.8377 8.58572 13.8377 9.89771C13.8377 11.2094 14.8121 12.2778 15.9947 12.2778C17.2055 12.2778 18.1514 11.2094 18.1514 9.89771Z" fill="currentColor"/>
</svg>
