<svg width="16" height="16" viewBox="0 0 16 16" fill="none" xmlns="http://www.w3.org/2000/svg">
<path d="M14.2929 0.292866C14.6834 -0.0976034 15.3164 -0.0976403 15.7069 0.292866C16.0974 0.683376 16.0974 1.31642 15.7069 1.70693L1.70693 15.7069C1.31642 16.0974 0.683376 16.0974 0.292866 15.7069C-0.0976403 15.3164 -0.0976034 14.6834 0.292866 14.2929L14.2929 0.292866Z" fill="currentColor"/>
<path d="M15.7071 14.2929C16.0976 14.6834 16.0976 15.3164 15.7071 15.7069C15.3166 16.0974 14.6836 16.0974 14.2931 15.7069L0.293072 1.70693C-0.0973775 1.31642 -0.0973774 0.683374 0.293072 0.292864C0.683577 -0.0976411 1.31661 -0.0976035 1.70713 0.292864L15.7071 14.2929Z" fill="currentColor"/>
</svg>
