<svg xmlns="http://www.w3.org/2000/svg" viewBox="0 0 24 24" fill="currentColor">
  <path d="M11.2951 0.163168C11.3756 -0.054487 11.6835 -0.054487 11.764 0.163168L14.7307 8.18064C14.7561 8.24907 14.81 8.30302 14.8784 8.32835L22.8959 11.2951C23.1136 11.3756 23.1136 11.6835 22.8959 11.764L14.8784 14.7307C14.81 14.7561 14.7561 14.81 14.7307 14.8784L11.764 22.8959C11.6835 23.1136 11.3756 23.1136 11.2951 22.8959L8.32835 14.8784C8.30302 14.81 8.24907 14.7561 8.18064 14.7307L0.163168 11.764C-0.054487 11.6835 -0.054487 11.3756 0.163168 11.2951L8.18064 8.32835C8.24907 8.30302 8.30302 8.24907 8.32835 8.18064L11.2951 0.163168Z"/>
</svg>

