<svg width="10" height="10" viewBox="0 0 10 10" fill="none" xmlns="http://www.w3.org/2000/svg">
<path d="M8.29288 0.292877C8.6834 -0.0976153 9.31643 -0.0976363 9.70694 0.292877C10.0974 0.683394 10.0974 1.31642 9.70694 1.70694L1.70694 9.70694C1.31642 10.0974 0.683394 10.0974 0.292877 9.70694C-0.0976363 9.31643 -0.0976153 8.6834 0.292877 8.29288L8.29288 0.292877Z" fill="currentColor"/>
<path d="M9.70712 8.29288C10.0976 8.6834 10.0976 9.31643 9.70712 9.70694C9.31661 10.0974 8.68358 10.0974 8.29306 9.70694L0.29306 1.70694C-0.0974213 1.31642 -0.0974212 0.683393 0.29306 0.292877C0.683574 -0.0976368 1.3166 -0.0976154 1.70712 0.292877L9.70712 8.29288Z" fill="currentColor"/>
</svg>
