<svg width="24" height="24" viewBox="0 0 24 24" fill="none" xmlns="http://www.w3.org/2000/svg">
  <path class="scroll-to-top-bg" d="M12 0C18.6274 0 24 5.37258 24 12C24 18.6274 18.6274 24 12 24C5.37258 24 0 18.6274 0 12C0 5.37258 5.37258 0 12 0ZM12.1358 1.33812C12.0732 1.23758 11.9268 1.23758 11.8642 1.33812L9.35422 5.36906C9.31803 5.42718 9.24886 5.45581 9.18219 5.44032L4.55702 4.36485C4.44163 4.33802 4.33802 4.44163 4.36485 4.55702L5.44032 9.18219C5.45581 9.24886 5.42718 9.31803 5.36906 9.35422L1.33812 11.8642C1.23758 11.9268 1.23758 12.0732 1.33812 12.1358L5.36906 14.6458C5.42718 14.682 5.45581 14.7511 5.44032 14.8178L4.36485 19.443C4.33802 19.5584 4.44163 19.6619 4.55702 19.6352L9.18219 18.5597C9.24886 18.5442 9.31803 18.5728 9.35422 18.6309L11.8642 22.6619C11.9268 22.7624 12.0732 22.7624 12.1358 22.6619L14.6458 18.6309C14.682 18.5728 14.7511 18.5442 14.8178 18.5597L19.443 19.6352C19.5584 19.6619 19.6619 19.5584 19.6352 19.443L18.5597 14.8178C18.5442 14.7511 18.5728 14.682 18.6309 14.6458L22.6619 12.1358C22.7624 12.0732 22.7624 11.9268 22.6619 11.8642L18.6309 9.35422C18.5728 9.31803 18.5442 9.24886 18.5597 9.18219L19.6352 4.55702C19.6619 4.44163 19.5584 4.33802 19.443 4.36485L14.8178 5.44032C14.7511 5.45581 14.682 5.42718 14.6458 5.36906L12.1358 1.33812Z"/>
  <circle class="scroll-to-top-circle" cx="12" cy="12" r="12"/>
  <path class="scroll-to-top-icon" d="M17.3682 13.3792L12.7072 8.71813C12.3167 8.32759 11.6835 8.32759 11.293 8.71813L6.63205 13.3792C6.35636 13.6549 6.35639 14.1018 6.63205 14.3776C6.90776 14.6533 7.35467 14.6533 7.63037 14.3776L11.293 10.7149C11.6835 10.3244 12.3167 10.3244 12.7072 10.7149L16.3698 14.3776C16.6456 14.6532 17.0925 14.6532 17.3682 14.3776C17.6437 14.1019 17.6437 13.6549 17.3682 13.3792Z"/>
</svg>
