<svg width="24" height="24" viewBox="0 0 24 24" fill="none" xmlns="http://www.w3.org/2000/svg">
  <path d="M11.9793 0C5.66437 0 0.49125 4.86073 0 11.0374L6.44287 13.6967C7.00546 13.3115 7.6736 13.1055 8.35781 13.1063C8.42175 13.1063 8.48494 13.1081 8.54719 13.1115L11.4128 8.96506V8.907C11.4128 6.412 13.4462 4.38163 15.9458 4.38163C18.4454 4.38163 20.4788 6.412 20.4788 8.907C20.4788 11.4019 18.4454 13.4331 15.9458 13.4331C15.9112 13.4331 15.8774 13.4323 15.8429 13.4315L11.7561 16.3414C11.7587 16.3954 11.7604 16.4492 11.7604 16.5023C11.7604 18.376 10.2338 19.8999 8.35781 19.8999C6.711 19.8999 5.33316 18.726 5.02181 17.1722L0.413437 15.2701C1.84059 20.3072 6.47653 24 11.9793 24C18.6185 24 24 18.6268 24 12C24 5.37247 18.6185 0 11.9793 0ZM7.533 18.208L6.05653 17.5989C6.31781 18.143 6.771 18.5981 7.37213 18.8481C8.67122 19.3887 10.1693 18.7736 10.7108 17.4756C10.9729 16.8515 10.9745 16.15 10.7151 15.5248C10.4556 14.8951 9.96516 14.4039 9.33637 14.1421C8.71106 13.8829 8.04159 13.8923 7.45341 14.1139L8.97919 14.7436C9.9375 15.1424 10.3907 16.2409 9.99113 17.1976C9.59241 18.1541 8.49131 18.6068 7.533 18.208ZM18.9665 8.907C18.9665 7.24463 17.6111 5.89108 15.9461 5.89108C14.2803 5.89108 12.9249 7.24463 12.9249 8.907C12.9249 10.5695 14.2803 11.9222 15.9461 11.9222C17.6111 11.9222 18.9665 10.5695 18.9665 8.907ZM13.6818 8.9019C13.6818 7.65102 14.698 6.63717 15.9505 6.63717C17.2038 6.63717 18.22 7.65102 18.22 8.9019C18.22 10.1528 17.2038 11.1667 15.9504 11.1667C14.698 11.1667 13.6817 10.1528 13.6817 8.902L13.6818 8.9019Z" fill="currentColor"/>
</svg>

