<svg width="24" height="21" viewBox="0 0 24 21" fill="none" xmlns="http://www.w3.org/2000/svg">
  <path d="M13.7549 1.75684L15.3721 2.31738V0.198242L16.0977 2.58984L17.3262 3.22461L18.5225 1.60059L17.7725 3.64551L19.1592 5.08105L21.1621 4.06641L19.5371 5.69922L19.8418 7.52246L20.3945 7.37402L20.9062 6.57324L20.7412 7.37402L22.4648 7.06836L21.4756 7.52246L22.8037 8.19043L20.7988 7.62988L20.3945 7.87695L21.1045 8.44629L20.0156 8.04883L19.8096 8.58887L19.9219 8.57812L20.5908 8.32812L19.96 8.77246L19.709 8.85449L19.6572 8.99121C20.0437 8.93199 20.7615 8.82097 20.7852 8.81055C20.8055 8.80039 21.2878 8.65154 21.5264 8.57812L20.9844 8.99707L19.96 9.37793L19.6953 9.44824L19.7207 9.54785H19.7314L20.5908 9.44141L20.9844 9.19238L20.8232 9.44141L21.6748 9.04785L22.416 8.47168L21.8311 9.34863L21.082 9.78906L20.3115 9.83594L20.5146 9.91211L21.1719 9.99121L22.4746 9.83594L23.627 9.54785L22.3906 10.1387H23.2383L24 10.2949H21.9795L20.7852 10.4746L20.2305 10.4541L20.0986 10.4492L20.0449 10.5996L20.5146 10.7588L20.9502 11.1689L20.332 10.9072L19.9492 10.8701L19.8555 11.1348L20.3955 11.2881L20.9844 11.6855L19.7783 11.3525L19.7314 11.4863L20.2686 11.7832L20.7852 12.3213L20.332 12.0117L19.6719 11.7832L20.0781 12.2764L19.5576 11.9756L19.5391 12.0283L19.6719 12.1006L20.3535 12.7188L20.5957 13.2559L22.3447 12.9961L20.7344 13.4219L21.9102 14.5508L20.1611 13.5791L19.7139 13.7041L19.7578 13.7568L19.6924 13.71L19.2354 13.8379L20.1611 14.1064H19.3184V14.5508L19.0596 14.1064H18.3555L17.4492 14.6621L18.0967 15.5137L16.7734 15.0039L13.8213 15.7539L16.1807 16.124L19.624 15.3652L16.7734 16.3369L17.9951 17.6416L15.5518 16.3369L15.6533 16.7441L15.0518 16.3369L12.7197 16.124L16.6533 18.4561L15.0518 17.9014L15.4873 19.0674L14.5244 17.8545L14.1357 19.6963L14.0059 17.3916L12.3398 16.5039L12.3955 17.79L11.6738 16.3369L8.98047 16.79L9.80469 18.3643L11.4883 19.002L10.3877 18.8262L11.8955 20.3633L9.26758 18.2529L8.63867 19.2617L8.98047 17.9014L8.5459 17.0957L7.92578 17.2529L7.10156 18.2529L7.30566 17.3184L5.17676 16.7441L7.74023 16.9111L8.15723 16.5039L6.76074 15.6094L5.25977 14.3838L3.28906 14.7266L4.98242 13.9307L3.98047 11.9658L2.54492 13.1816L3.70898 11.75H3.70996L3.63477 11.2549L4.49121 10.2949H3.78613L3.73828 10.3467L3.77148 10.2949H3.22754L2.93457 10.7988L3.03711 11.4717L2.67188 11.2373L1.62012 13.21L2.51074 10.7988L0.860352 10.5215L2.19922 10.2949H0.651367L0 10.1387H2.71094L3.25586 9.08984L2.75977 8.5498H3.03711L2.51074 6.91309L3.62109 8.85645L4.58496 8.5498L5.00879 7.19141L3.62109 6.69434H5.22852L5.88574 5.51074L6.05273 4.88086L4.37695 4.96484L3.31348 5.74121L3.89062 4.96484L2.21582 5.13867L4.90527 4.4873L3.13965 2.3916L4.82227 3.88477L5.13574 3.09277L5.20996 4.36328L6.19531 4.34668L6.35254 3.75781L5.35938 2.60449L6.48438 3.23242L7.25879 0.543945L7.02539 2.18066L8.93848 1.17285L6.92285 2.73535L6.55762 4.34082L8.31152 4.31348L7.70898 3.48047L9.02051 4.06641L11.0166 3.35742L9.28516 2.0459L11.833 2.94434L14.0029 2.31738L13.3096 1.95508L12.4023 2.14453L11.9814 2.49121L12.2051 2.14453L11.1484 2.0459L13.1279 1.6748L11.4951 0L13.7549 1.75684ZM7.4082 13.3398L8.06348 13.7188L9.59375 14.4707L10.7158 14.8184L9.52051 14.5908L7.97754 13.8564L7.43848 13.5225L7.74023 15.3652L9.36133 16.0527L9.63477 14.8711L9.94043 15.9482L12.2812 15.5137L12.8447 15.0449L12.7012 15.0684L12.0908 15.0127L12.7012 14.9258L13.0703 14.8564L13.4395 14.5508L13.5654 14.2715L13.3975 14.0771L13.1436 14.084L13.3691 14.0439L13.1855 13.8301L13.0918 13.834L13.0117 14.0342L13.1689 14.4727L12.7803 14.0342L12.6729 13.8496L12.5762 13.8535L12.4209 14.2012L12.4824 14.6035L12.3096 14.2012L12.3271 13.835L12.2637 13.8271L12.1338 14.0742L11.8369 14.3516L11.96 14.0342V13.791L11.8174 13.7744L11.6367 13.876L11.3906 14.3516V13.8145L11.4346 13.7295L11.3389 13.7188L11.2578 13.7041L11.083 13.7881L11.0654 13.834L11.3857 13.8945L11.0557 13.8604L10.8887 14.3213L10.791 14.1064L10.833 13.8379L10.6279 13.8164L10.4434 14.2959L10.4854 13.8018L10.3066 13.7842L10.166 14.0342V13.7695L10.0361 13.7568L9.92773 13.7227L9.83203 13.8389L10.1309 13.9766L9.80566 13.8701L9.77734 13.9062L9.79297 13.8662L9.32715 13.7148L9.25977 13.7578L9.29785 13.7051L8.9707 13.5986L8.96387 13.5957L8.86523 13.6709L8.90527 13.5684L8.38379 13.3281L8.17676 13.3926L9.80469 14.2295L8.12012 13.4863L7.37305 13.126L7.4082 13.3398ZM15.8691 14.3418L15.874 14.3516L15.8652 14.3438L14.4336 14.7891L13.6719 14.9111L13.4395 15.2383L15.5518 14.7266L15.9414 14.3203L15.8691 14.3418ZM5.5791 12.6611L6.87793 13.5557L5.45508 12.7646L5.09766 12.5957L5.4873 13.5205L7.20801 15.0039L7.27441 13.4219L6.93359 13.2109L5.96191 12.6865L5.03809 12.3135L5.5791 12.6611ZM14.2461 14.1064L13.8086 14.7188L14.3857 14.6123L14.7646 14.5088L14.2959 14.1777V14.082L14.2461 14.1064ZM14.6377 13.9209L14.665 14.1777L14.8242 14.4922L15.335 14.3535L14.8818 13.9932L14.6699 14.0576L14.8662 13.9805L14.7334 13.875L14.6377 13.9209ZM17.2168 13.7891L17.3564 13.876L17.1787 13.8184L16.9316 14.0127L16.4492 14.1621L16.4453 14.1719L16.5195 14.2646L16.4326 14.207L16.3447 14.4629L17.75 13.6846L17.5264 13.5527L17.5215 13.5518L17.2168 13.7891ZM15.1152 13.9229L15.1055 13.9678L15.3682 14.3447L15.7559 14.2393L15.5566 14.0488L15.4648 14.084L15.5498 14.042L15.3506 13.8525L15.1152 13.9229ZM15.7031 13.9932L15.8125 14.2236L16.1104 14.1436L16.1982 14.0508L16.1602 14.0254L15.9375 14.1055L16.1357 14.0098L15.9629 13.8936L15.7031 13.9932ZM13.6318 14.125L13.6572 14.0713H13.6201L13.6318 14.125ZM16.7588 13.8135L16.5449 13.8887L16.4912 14.04L16.7285 13.9766L16.9785 13.7539L16.8672 13.7178L16.7588 13.8135ZM13.5654 13.8164L13.6055 14.0029L13.6953 13.9883L13.7393 13.8896L13.6328 13.8135L13.5654 13.8164ZM15.6377 13.7656L15.6182 13.8145L15.6934 13.9727L15.9297 13.8584L15.8779 13.6934L15.6377 13.7656ZM16.5049 13.6885L16.1982 13.8047L16.207 13.876L16.2646 13.9473L16.3262 13.9189L16.6016 13.6318L16.583 13.626L16.5049 13.6885ZM15.1641 13.7051L15.125 13.8799L15.3086 13.8076L15.2656 13.667L15.1641 13.7051ZM9.42578 13.6514L9.80762 13.8271L9.8584 13.7002L9.51758 13.5938L9.42578 13.6514ZM16.5752 13.7998L16.7285 13.7275L16.7695 13.6865L16.6309 13.6416L16.5752 13.7998ZM10.6514 13.7568L10.8408 13.792L10.8652 13.6338L10.7754 13.6182L10.6514 13.7568ZM16.1895 13.7334L16.2764 13.6924L16.1816 13.6709L16.1895 13.7334ZM10.3613 13.6875L10.3535 13.7002L10.5029 13.7285L10.5762 13.582L10.5146 13.5713L10.3613 13.6875ZM16.9639 13.6328L17.0527 13.6875L17.2725 13.4941L17.1543 13.4668L16.9639 13.6328ZM10.043 13.583L10.0029 13.6309L10.0361 13.6416L10.1963 13.6709L10.2832 13.5303L10.1719 13.5098L10.043 13.583ZM16.2861 13.5723L16.2246 13.5898L16.3311 13.666L16.4453 13.6113L16.4717 13.5898L16.4482 13.583L16.3779 13.5156L16.2861 13.5723ZM15.6797 13.6631L15.8467 13.5986L15.7188 13.5703L15.6797 13.6631ZM9.0918 13.498L9.3584 13.6211L9.4043 13.5576L9.12793 13.4707L9.0918 13.498ZM8.3418 12.6738L10.0674 13.2139L11.8857 13.5547L13.4404 13.6045L13.9092 13.5195L14.085 13.1338L13.9805 13.1572L12.1484 13.2139L10.458 13.001L8.17188 12.248L7.00684 11.9785L8.3418 12.6738ZM17.666 13.4385L17.835 13.6045L18.0781 13.3418L17.9336 13.2305L17.666 13.4385ZM9.64062 13.5186L9.89844 13.5986L9.90527 13.583L9.98047 13.4697L9.87207 13.4375L9.64062 13.5186ZM16.7471 13.498L16.8789 13.5801L17.0273 13.4375L16.873 13.4014L16.7471 13.498ZM18.4297 13.5791L19.3223 13.4453L18.8291 13.0928L18.8027 13.0811L18.4297 13.5791ZM16.1455 13.373L16.1582 13.4766L16.2002 13.4609L16.2705 13.4141L16.208 13.3545L16.1455 13.373ZM9.24805 13.3965L9.47168 13.4658L9.49023 13.4404L9.58887 13.3545L9.50293 13.3291L9.24805 13.3965ZM14.4531 13.0527L14.3154 13.4463L14.9131 13.3389L15.0479 13.3096L15.1299 13.2812L15.5205 12.8193L14.4531 13.0527ZM8.95996 13.4365L8.97461 13.4229L8.83301 13.3789L8.95996 13.4365ZM16.6924 13.4219L16.7559 13.374L16.6514 13.3506H16.6494L16.6924 13.4219ZM18.9883 12.832L19.4795 13.4219L20.5283 13.2656L19.96 12.6768L19.3584 12.3389L18.9883 12.832ZM7.89648 13.2539L8.14941 13.3789L8.16797 13.3877L8.3252 13.3008L8.08398 13.1895L7.89648 13.2539ZM8.72852 13.2207L8.70605 13.2275L9.06445 13.3389L9.17871 13.2334L9.01855 13.1855L8.72852 13.2207ZM17.4189 13.2344L17.5088 13.2852L17.7266 13.0908L17.6377 13.0439L17.4189 13.2344ZM6.05273 12.5625L7.01465 13.1123L7.28125 13.2666L7.28906 13.085L7.01465 12.9531L6.02637 12.4502L5.37305 12.2402L6.05273 12.5625ZM18.0791 13.1182L18.0713 13.123L18.165 13.248L18.46 12.9297L18.3213 12.8691L18.0791 13.1182ZM7.35059 12.9854L7.86914 13.2412L7.99609 13.1484L7.65234 12.9902L7.48633 13.0352L7.58203 12.958L7.32617 12.8398L7.35059 12.9854ZM8.36426 13.0938L8.48926 13.1602L8.54883 13.1787L8.73926 13.1035L8.61523 13.0674L8.36426 13.0938ZM18.3115 10.75L17.6152 11.6377L16.5293 12.4678L15.7598 12.5771L15.4443 13.1738L15.542 13.1406L16.8896 12.6016L18.0059 11.7861L18.624 10.8701L18.8174 10.2949H18.5625L18.3115 10.75ZM17.2275 13.126L17.3037 13.1689L17.5059 12.9736L17.457 12.9473L17.2275 13.126ZM17.1201 13.0654L17.1436 13.0791L17.3213 12.9453L17.1201 13.0654ZM8.21289 13.0146L8.35645 12.9668L8.22168 12.9072H8.00781L8.21289 13.0146ZM13.3408 13.001L13.8662 12.958L14.0947 12.916L14.0322 12.6094L13.3408 13.001ZM7.10938 12.8672L7.29492 12.958L7.2998 12.8271L6.18555 12.3135L7.10938 12.8672ZM17.8193 12.8828L17.9004 12.9375L18.0918 12.7686L17.957 12.71L17.8193 12.8828ZM15.4922 7.97363L16.5645 8.61914L17.4668 9.40039L16.7852 8.9248L15.5352 8.19336L15.8477 9.69922L15.3721 11.2393L14.9033 11.7686L14.5283 12.8389L15.0166 12.752L15.5244 12.8145L15.7197 12.582L15.3291 12.6387L15.8037 12.4834L15.8193 12.4658L15.8105 12.4814L16.2236 12.3477L17.2959 11.6377L17.4092 11.3389L17.0615 11.6377L16.0322 12.248L15.1162 12.5107L15.9326 12.1836L17.0615 11.5098L17.5586 11.0547V11.375L18.0059 10.75L18.0547 10.2949H18.0508L17.7012 10.835L17.8584 10.2949H17.1514L17.1631 10.3418L17.1006 10.5732L17.2891 11.1182L17.0303 10.9082L16.8975 11.1816L16.7646 11.5449L16.6875 11.3008L16.7646 11L16.4707 10.832L16.7227 10.7754L16.4707 10.6152L16.1904 10.1953L16.3447 9.70508L16.7646 9.5791L17.0303 9.83105L17.1104 10.1387H17.9043L17.9062 10.1318L17.5088 9.84082L16.7852 9.15234L17.4092 9.66309L17.9062 10.0039L17.6152 9.55664L18.2266 10.0039L17.5088 9.23047L16.3018 8.28613L15.3721 7.76074L15.4922 7.97363ZM7.61719 12.7012L7.83398 12.8154L7.97461 12.7979L7.79199 12.7178L7.68066 12.6982L7.61719 12.7012ZM14.2852 12.4678L14.1611 12.5371L14.3076 12.8115L14.7998 11.8857L14.2852 12.4678ZM17.6699 12.7822L17.6895 12.7949L17.833 12.6572L17.6699 12.7822ZM8.79883 7.61523L7.90918 8.0498L7.20508 8.72266L6.89941 9.05566L6.42285 9.80957L6.34668 10.0498L6.37793 10.1387H7.37988V9.92188L7.7334 9.66699L8.10742 9.73242L8.34277 9.92188L8.4082 10.3418L8.06738 10.6367L7.58301 10.5713L7.81836 10.8066H7.58301L7.7334 11.377L7.53027 10.9707L7.29395 10.9316L7.37988 10.7148L7.29395 10.5713L7.37988 10.374V10.2949H6.43164L6.55957 10.6641L6.7373 11.0586L6.96484 11.376L6.7373 11.2266L6.46875 10.7676L6.27246 10.3438L6.26367 10.2949H6.20312L6.20898 10.3262L6.34668 10.7676L6.85156 11.5322L7.56152 11.7051L7.42578 11.5703L8.99805 12.1074L9.53613 12.3486L8.76758 12.1328L7.74219 11.7812L7.26953 11.7354L8.94043 12.29L10.2773 12.7295L9.47949 11.9648L8.85449 10.9336L8.6084 9.86914L8.76758 8.39941L9.06055 7.80664L8.66113 7.97949L7.80957 8.47266L6.96484 9.35059L7.70312 8.75781L8.11523 8.50586L7.70312 8.94434L7.05176 9.58301L7.53027 8.99121L6.96484 9.42969L6.55957 9.96875L6.77246 9.4834L7.24414 8.8916L7.70312 8.47266L8.1748 8.11426L8.8291 7.74121L9.17188 7.4834L8.79883 7.61523ZM9.84668 9.3252L9.00781 9.39258L9.84668 9.52344L9.00781 9.64746L9.73535 9.74609L9.05176 9.9082H9.67383L9.05176 10.1201L9.67383 10.1455L9.14062 10.4277L10.0127 10.1865L9.21289 10.6611L9.96973 10.4121L9.30273 10.8115L10.0654 10.5557L9.43262 11.043L9.95703 10.8594L9.55371 11.2715L10.082 10.9512L9.67383 11.4668L10.2783 11.0713L9.81641 11.6123L10.5439 11.0996L9.96973 11.7852L10.7139 11.2832L10.2773 12.0439L11.04 11.0713L10.5439 12.0469L11.0762 11.4385L10.6846 12.2725L11.1143 11.71L10.8662 12.3936L11.3086 11.71L11.1748 12.5371L11.5449 11.7607L11.3984 12.6123L11.8066 11.5439L11.6729 12.6611L11.8818 11.8896L11.9521 12.6904L12.0762 11.8457L12.1387 12.6904L12.2578 11.7744L12.3789 12.6738L12.4678 11.6328L12.2764 10.9512L12.0439 11.5898V10.9512L11.7471 11.5439L11.7822 10.9932L11.4717 11.4668L11.5352 10.8594L11.2383 11.4033L11.3301 10.8594L11.04 11.2832L11.1748 10.8594L10.8359 11.2119L11.0762 10.7109L10.6309 11.043L10.9766 10.5557L10.3691 10.8594L10.8359 10.4277L10.2354 10.6191L10.751 10.2441L10.1289 10.3008L10.6309 10.0186L9.91699 10.1455L10.5967 9.81348L9.81641 9.74609L10.5742 9.48828L9.81641 9.20898L9.00781 9.09766L9.84668 9.3252ZM14.083 10.3594L13.4844 10.2441L13.9092 10.6611L13.4004 10.4775L13.7744 10.9932L13.2168 10.6611L13.5693 11.2402L13.124 10.7529L13.248 11.3184L12.8633 10.8594L13.04 11.3604L12.6865 10.9512L12.8633 11.502L12.4678 10.9512L12.5107 11.6182L12.6436 12.6738L12.6562 11.875L12.876 12.6465L12.7637 11.7432L13.1475 12.5791L12.9785 11.71L13.4072 12.4873L13.085 11.4805L13.6592 12.3428L13.4072 11.5898L13.8389 12.0713L13.5527 11.5557L14.0332 12.0439L13.7852 11.5303L14.3135 11.9395L13.9434 11.4307L14.4385 11.7432L14.0527 11.3604L14.5703 11.6016L13.7324 10.7871L14.7373 11.4307L14.083 10.8262L14.9033 11.209L14.3262 10.7725L14.9482 11.0127L14.416 10.5781L15.1055 10.8037L14.4912 10.5332L15.1553 10.623L14.29 10.3232L13.5977 9.9834L14.083 10.3594ZM18.583 12.6025L18.7041 12.666L18.8105 12.5508L18.7061 12.4766L18.583 12.6025ZM7.46777 12.623L7.52637 12.5996L7.45996 12.5703L7.35938 12.5664L7.46777 12.623ZM18.79 12.3906L18.8682 12.4893L19.1133 12.2246L18.9902 12.1865L18.79 12.3906ZM7.08789 12.4238L7.19434 12.4795L7.2168 12.4629L7.12109 12.4209L7.08789 12.4238ZM18.2031 12.4014L18.3008 12.4531L18.3789 12.3271L18.29 12.292L18.2031 12.4014ZM6.93555 12.3438L6.94141 12.3408L6.87793 12.3135L6.93555 12.3438ZM18.4414 12.1025L18.4971 12.1377L18.5508 12.0508L18.4961 12.0342L18.4414 12.1025ZM19.2656 11.8799L19.3555 11.9287L19.3828 11.874L19.3203 11.8379L19.291 11.8242L19.2656 11.8799ZM5.76758 10.541L6.02051 11.3125L6.77246 11.7051L6.16016 11.1328L6.02051 10.4209L6.04883 10.2949H5.83887L5.76758 10.541ZM19.4922 11.376L19.6094 11.4209L19.6562 11.3281L19.5244 11.3027L19.4922 11.376ZM19.6289 11.0703L19.7656 11.1084L19.8877 10.8643L19.7285 10.8486L19.6289 11.0703ZM19.8672 10.5391L20.0244 10.5918L20.0957 10.4482L19.9102 10.4414L19.8672 10.5391ZM13.2871 7.79688L13.0889 8.28809L13.5977 8.04004L13.2871 8.40039L13.9297 8.20312L13.4844 8.58398L13.9795 8.40039L13.5977 8.78906L14.1631 8.66211L13.7324 9.01562H14.1631L13.7324 9.24805L14.29 9.3584L13.7744 9.52344L14.2051 9.77832L13.7324 9.81348L14.29 10.2783L15.1992 10.5166L14.4805 10.1846L15.25 10.3076L14.4551 10.0215L15.3105 10.1309L14.4551 9.87988L15.1201 9.86328L14.6289 9.7041L15.3896 9.67285L14.4248 9.54785L15.333 9.42383H14.2783L15.333 9.14453L14.3408 9.23242L15.3477 8.87012L14.3555 9.04004L15.2646 8.67188L14.4248 8.8457L15.2158 8.41699L14.0674 8.83301L15.1201 8.20312L14.29 8.41699L14.8877 7.81836L14.2578 8.20312L14.8428 7.72363L14.1465 8.0791L14.6719 7.58887L14.0439 7.9834L14.4668 7.49316L13.9541 7.96777L14.3125 7.39258L13.7324 7.9375L14.1191 7.37012L13.6162 7.87305L14.0293 7.27051L13.4365 7.8877L13.8398 7.12598L13.2871 7.79688ZM3.62109 9.61621L3.31738 10.1387H3.87012L4.36621 9.35352L3.62109 9.61621ZM3.93262 10.1387H4.62988L4.83398 9.91016L4.65527 9.70996L4.94043 9.79004L5.0293 9.69141L4.8584 9.46484L5.1748 9.52734L5.21875 9.47852L5.08984 9.41406L4.93652 9.07129L5.14746 9.20312L5.4375 9.2334L5.5293 9.13086L5.22461 8.75293L3.93262 10.1387ZM5.93359 9.96875L5.88477 10.1387H6.08496L6.16016 9.80957V10.0703L6.17285 10.1387H6.23535L6.21973 10.0498V9.58301L5.93359 9.96875ZM18.6973 10.1387H18.8701L18.8721 10.1318L18.7822 10.0547L18.6973 10.1387ZM11.377 7.67676L10.9678 6.88574L11.1426 7.43457L10.7607 6.94434L11.0039 7.62402L10.5928 7.15137L10.9385 7.87109L10.3818 7.21875L10.6641 7.78906L10.1719 7.31152L10.4619 7.93457L10.0244 7.44922L10.3076 7.92188L9.81641 7.60059L10.2148 8.06543L9.67285 7.75684L10.0947 8.20312L9.5293 7.90918L10.0693 8.35352L9.41113 8.14062L10.0244 8.48926L9.32031 8.30078L9.98047 8.69824L9.32031 8.55469L9.92969 8.82031L9.43457 8.73828L9.96777 9.04785L9.32031 8.92969L9.83496 9.15332L10.5742 9.24805L10.1719 8.97949H10.6309L10.1289 8.66211L10.7158 8.83203L10.2773 8.28809L10.8359 8.58398L10.5039 8.04004L11.04 8.40039L10.7158 7.87109L11.2383 8.20312L11.04 7.62402L11.5693 8.14062L11.5244 7.60059L11.2148 6.87109L11.377 7.67676ZM5.26367 8.71191L5.71289 8.9248L5.74219 8.8916L5.54102 8.70117L5.50098 8.45703L5.26367 8.71191ZM18.6807 8.47168L18.668 8.49609L18.875 8.62207L18.7422 8.4502L18.6807 8.47168ZM5.5957 8.35547L5.68066 8.51367L6.0332 8.56543L6.10645 8.4834L5.87305 8.05859L5.5957 8.35547ZM18.2705 8.14648L18.1934 8.17871L18.2822 8.26172L18.3506 8.30273L18.5752 8.23438L18.4414 8.06152L18.2705 8.14648ZM12.415 7.67676L12.2764 6.91504L12.1455 7.55859L11.9912 6.87109V7.68945L11.7822 6.94434V7.64941L11.4971 6.88574L11.5693 7.55859L11.7822 8.04004L11.832 7.41895L12.0439 8.04004L12.2764 7.46094L12.3682 8.04004L12.5732 7.49316V7.9834L12.9336 7.62402L12.9043 8.16602L13.2461 7.77637L13.5977 7.04395L13.0889 7.74609L13.2871 7L13.0059 7.43457L13.0625 6.97168L12.7988 7.43457L12.8291 6.91504L12.6172 7.49316V6.87109L12.415 7.67676ZM18.7529 7.90723L18.9609 8.14648H19.1338L19.1592 8.04883L19.1221 7.72363L18.7529 7.90723ZM6.00879 7.91309L6.04688 7.96289L6.43066 8.12012L6.4502 8.09863V7.58008L6.42383 7.46875L6.00879 7.91309ZM17.8604 7.86426L17.8975 7.89941L18.1924 7.83984L18.1133 7.76953L17.8604 7.86426ZM8.14648 4.79004L6.88477 6.20215L7.87402 4.79004L7.41797 4.8125L6.26562 5.70117L5.35938 7.80469L5.66602 7.51172L5.62988 7.40918L5.69043 7.48926L6.2959 6.91406L6.28027 6.84473L6.31836 6.89258L7.39551 5.87012L9.73047 4.72656L9.75488 4.36328L8.14648 4.79004ZM18.4893 7.60645L18.5146 7.63281L18.6191 7.75293L18.834 7.70996L19.1094 7.61914L19.0654 7.22852L18.4893 7.60645ZM16.9316 7.5293L17.2383 7.74707L16.9971 7.48633L16.9316 7.5293ZM17.2695 7.30859L17.6777 7.69336L17.9385 7.61621L17.4521 7.18848L17.2695 7.30859ZM12.7822 4.44531L13.4004 3.05176L10.3574 4.21484L10.2197 4.62012H12.2402L10.1123 4.93555L10.042 5.13965L10.3848 5.50391L10.6562 5.41992L10.4082 5.52832L10.5371 5.66602L10.626 5.70215L11.043 5.56738L10.9229 5.43652V4.92676L11.3281 5.54199H11.8564L11.7891 5.29688L12.1133 4.64844L12.0098 5.18945L12.0986 5.54199H12.4521L12.1084 5.58398L12.1133 5.60059L12.3408 5.7998L12.4521 5.79395L12.5918 5.8125L12.6387 5.3623L13.0488 4.69727L12.8438 5.60059L12.8906 5.85449L13.1123 5.88477L13.2129 5.66602L13.3037 5.13281L13.3691 5.66602L13.3389 5.91602L13.5195 5.94141L13.6299 5.79688L13.3955 5.71875L13.6494 5.77148L13.7305 5.66602L14.042 5.13281L13.9443 5.74023L13.8965 5.82324L14.3525 5.91797L14.5762 5.43652V5.98926L14.8906 6.09668L14.9453 6.05957L15.1074 5.69824L14.9189 5.58105L15.1152 5.68164L15.2002 5.49316L15.1797 5.71484L15.6973 5.98047L15.9062 5.75391L15.4336 5.45703L14.0088 4.8291L15.4629 5.29883L16.5264 5.97949L16.8311 5.66602L16.6064 6.03125L16.9072 6.22363L17.1826 6.44238L17.6611 6.22363L17.333 6.5625L17.668 6.82812L17.8896 6.68945L17.7305 6.87793L17.9951 7.08887L18.3662 7.47754L19.0566 7.15332L18.9404 6.13086L17.8643 5.50781L17.1162 5.74121L17.5059 5.35156L16.8975 4.79004L18.582 5.42969L17.8643 4.70117L16.1963 4.21484L14.3076 4.4873L15.751 4.00879L14.7529 3.48047L17.5654 4.21484L14.8193 2.65625L12.7822 4.44531ZM17.5586 7.08301L18.0195 7.40039L17.6045 7.02832L17.5586 7.08301ZM6.61816 7.25977L6.67773 7.33301L7.10938 7.35938L7.3916 7.04297L7.15039 6.69043L6.61816 7.25977ZM16.4346 7.19629L16.6055 7.29688L16.6113 7.30078L16.7705 7.24219L16.6377 7.09961L16.4346 7.19629ZM16.8438 6.98047L17.0361 7.08887L17.0781 7.12891L17.2939 7.04883L17.2383 7L16.9961 6.85352L16.8438 6.98047ZM17.085 6.7793L17.3076 6.91113L17.417 6.98633L17.499 6.93457L17.209 6.6748L17.085 6.7793ZM7.97461 6.91113L8.02832 6.92578L8.22363 6.81055L8.16602 6.77051L7.97461 6.91113ZM15.8535 6.85645L15.9209 6.89551L16.1914 6.81348L16.0088 6.71777L15.8535 6.85645ZM7.61133 6.19727L7.23047 6.60449L7.47461 6.77441L7.64551 6.82129L7.9502 6.62305L7.89355 6.58496L7.73926 6.12891L7.61133 6.19727ZM16.1514 6.5918L16.4209 6.74316L16.6816 6.66406L16.3174 6.44336L16.1514 6.5918ZM15.4375 6.6123L15.5156 6.6582L15.707 6.55957L15.5586 6.48145L15.4375 6.6123ZM16.3984 6.37207H16.3975L16.8076 6.61426L17.0293 6.5127L16.8281 6.33301L16.5342 6.14844L16.3984 6.37207ZM8.47363 6.5459L8.5918 6.5918L8.70508 6.52441L8.62988 6.43066L8.47363 6.5459ZM15.6641 6.35938L15.8486 6.42188L15.9092 6.45605L16.1406 6.33691L15.9521 6.22363L15.7783 6.11523L15.6641 6.35938ZM14.8887 6.38477L15.0742 6.44922L15.2852 6.35156L15.0078 6.25879L14.8887 6.38477ZM7.81543 6.08887L8.0332 6.37207L8.22266 6.44629L8.49902 6.26758L8.37793 6.11719L8.34082 5.81055L7.81543 6.08887ZM14.4521 6.2334L14.6123 6.28906L14.7705 6.17969L14.5254 6.09668L14.4521 6.2334ZM15.1426 6.11719L15.0957 6.16602L15.4238 6.27734L15.6475 6.03418L15.1768 5.74121L15.1426 6.11719ZM15.8135 6.04004L15.9971 6.13477L16.2373 6.27637L16.4277 6.08105L15.9375 5.77344L15.8135 6.04004ZM9.12305 6.09766L9.35156 6.1416L9.4502 6.08398L9.55078 6.05078L9.43652 5.95801L9.12305 6.09766ZM13.793 6.00488L14.1777 6.1377L14.2949 6.02051L13.8662 5.87598L13.793 6.00488ZM8.47852 5.7373L8.64062 6.00293L8.8457 6.04297L9.0293 5.9248L9.31055 5.83691L9.0498 5.43457L8.47852 5.7373ZM10.1934 5.9834L10.293 6.02246L10.4189 5.99707L10.3545 5.93066L10.1934 5.9834ZM9.82227 5.78809L9.80664 5.83301L9.99512 5.90625L10.249 5.82422L10.0947 5.66699L9.82227 5.78809ZM11.0117 5.71875L10.8184 5.78125L11.04 5.87207L11.0615 5.86816L11.3076 5.85449L11.165 5.69922L11.0117 5.71875ZM11.4434 5.66504L11.6494 5.83594L11.9326 5.82129L11.875 5.6123L11.4434 5.66504ZM9.1084 5.4043L9.56836 5.74023L9.5918 5.74902L9.66504 5.72656L9.70703 5.08789L9.1084 5.4043ZM9.86426 5.66504L10.0859 5.5957L10.0381 5.15234L9.86426 5.66504ZM6.43945 4.86133L6.35254 5.24805L7.24609 4.82129L6.43945 4.86133Z" fill="currentColor"/>
</svg>
