<svg width="42" height="24" viewBox="0 0 42 24" fill="none" xmlns="http://www.w3.org/2000/svg">
<path d="M0 23.7221V0H10.1749C11.9244 0 13.4552 0.320465 14.7674 0.961392C16.0796 1.60232 17.1 2.5251 17.829 3.72974C18.558 4.93438 18.9225 6.3784 18.9225 8.06179C18.9225 9.76064 18.5465 11.1931 17.7944 12.3591C17.0502 13.5252 16.0027 14.4055 14.6522 15.0001C13.3094 15.5947 11.7402 15.8919 9.94466 15.8919H3.86737V10.8881H8.65553C9.40752 10.8881 10.0482 10.7954 10.5777 10.6101C11.1148 10.417 11.5254 10.112 11.8093 9.69501C12.1009 9.27802 12.2467 8.73361 12.2467 8.06179C12.2467 7.38226 12.1009 6.83013 11.8093 6.40542C11.5254 5.97299 11.1148 5.65639 10.5777 5.45561C10.0482 5.24712 9.40752 5.14286 8.65553 5.14286H6.39957V23.7221H0ZM13.8121 12.834L19.7051 23.7221H12.7531L6.99809 12.834H13.8121ZM35.6005 0H42V15.197C42 17.0039 41.5704 18.5676 40.7109 19.8881C39.8592 21.2008 38.6698 22.2162 37.1428 22.9345C35.6159 23.6449 33.8433 24 31.8251 24C29.7918 24 28.0116 23.6449 26.4845 22.9345C24.9575 22.2162 23.7681 21.2008 22.9165 19.8881C22.0724 18.5676 21.6503 17.0039 21.6503 15.197V0H28.0499V14.641C28.0499 15.3746 28.211 16.0309 28.5333 16.61C28.8556 17.1815 29.3006 17.6293 29.8685 17.9537C30.444 18.278 31.0963 18.4402 31.8251 18.4402C32.5618 18.4402 33.2141 18.278 33.7819 17.9537C34.3498 17.6293 34.7948 17.1815 35.117 16.61C35.4394 16.0309 35.6005 15.3746 35.6005 14.641V0Z" fill="currentColor"/>
</svg>

