<svg viewBox="0 0 24 24" xmlns="http://www.w3.org/2000/svg">
  <path d="M12 0C18.6274 0 24 5.37259 24 12C24 18.6274 18.6274 24 12 24C5.37259 24 0 18.6274 0 12C5.63744e-08 5.37259 5.37259 5.63727e-08 12 0ZM17.7227 7.80371C17.8257 6.63643 16.6028 7.0999 16.5781 7.10938C16.5781 7.10938 13.8732 8.2195 13.0752 8.56641C11.0015 9.43047 5.03548 11.8785 4.99414 11.8955C3.58754 12.4444 4.38688 12.9597 4.4043 12.9707C4.4043 12.9707 5.61868 13.3871 6.65918 13.6992C7.68484 14.0068 8.23856 13.6744 8.25391 13.665C8.25391 13.665 10.6821 12.0696 13.1445 10.3701C14.8786 9.19101 14.4621 10.1619 14.0459 10.5781C13.1442 11.4798 11.6528 12.9014 10.4043 14.0459C9.84942 14.5315 10.1273 14.9482 10.3701 15.1562C11.2721 15.9193 13.7343 17.48 13.873 17.584C14.0472 17.7232 15.0172 18.3464 15.6064 18.208C16.196 18.0693 16.2656 17.2715 16.2656 17.2715C16.2696 17.2466 16.7184 14.4159 17.1328 11.8262C17.4102 9.98844 17.6879 8.28952 17.7227 7.80371Z"/>
</svg>
