<svg width="14" height="14" viewBox="0 0 14 14" xmlns="http://www.w3.org/2000/svg">
  <path d="M12.4871 0.259622C12.8332 -0.0865558 13.3944 -0.0865256 13.7406 0.259622C14.0868 0.605814 14.0868 1.16697 13.7406 1.51316L1.5134 13.7404C1.16721 14.0865 0.606051 14.0865 0.259859 13.7404C-0.0862748 13.3942 -0.0863134 12.833 0.259859 12.4868L12.4871 0.259622Z"/>
  <path d="M0.259644 0.259644C0.605835 -0.0865479 1.16699 -0.0865479 1.51318 0.259644L13.7404 12.4868C14.0865 12.833 14.0865 13.3942 13.7404 13.7404C13.3942 14.0865 12.833 14.0865 12.4868 13.7404L0.259644 1.51318C-0.0865479 1.16699 -0.0865479 0.605835 0.259644 0.259644Z"/>
</svg>
