<svg viewBox="0 0 24 24" xmlns="http://www.w3.org/2000/svg">
  <path d="M12 0C18.6274 0 24 5.37258 24 12C24 18.6274 18.6274 24 12 24C5.37258 24 0 18.6274 0 12C0 5.37258 5.37258 0 12 0ZM4.7998 16.875H6.75V12.9004C6.75 11.8504 7.0502 10.7884 8.3252 10.7246C9.44082 10.6689 9.52234 11.5154 9.52539 12.4814V16.875H11.5498V12.2246C11.5497 10.125 10.6184 9.30596 9.375 9.22461C8.02505 9.13631 7.34999 9.60015 6.75 10.3223V6.22559H4.7998V16.875ZM12.4502 16.875H14.4004V12.9004C14.4004 11.8505 14.6999 10.7885 15.9746 10.7246C17.2496 10.6609 17.1748 11.7754 17.1748 12.9004V16.875H19.2002V12.2246C19.2001 10.1252 18.2686 9.30611 17.0254 9.22461C15.6755 9.13629 15.0004 9.60025 14.4004 10.3223V6.22559H12.4502V16.875Z"/>
</svg>
