<svg width="26" height="26" viewBox="0 0 26 26" fill="none" xmlns="http://www.w3.org/2000/svg">
<path d="M24.2928 0.292846C24.6834 -0.097584 25.3164 -0.0976468 25.7069 0.292846C26.0973 0.683347 26.0973 1.31641 25.7069 1.70691L1.70691 25.7069C1.31641 26.0973 0.683347 26.0973 0.292846 25.7069C-0.0976468 25.3164 -0.097584 24.6834 0.292846 24.2928L24.2928 0.292846Z" fill="currentColor"/>
<path d="M25.7069 24.2928C26.0973 24.6834 26.0974 25.3164 25.7069 25.7069C25.3164 26.0973 24.6833 26.0973 24.2928 25.7069L0.292847 1.70691C-0.097551 1.31641 -0.0975509 0.683345 0.292847 0.292845C0.683339 -0.097648 1.31638 -0.0975846 1.70691 0.292845L25.7069 24.2928Z" fill="currentColor"/>
</svg>
