<svg width="24" height="24" viewBox="0 0 24 24" fill="none" xmlns="http://www.w3.org/2000/svg">
  <path d="M4.0524 11.7627L2.09326 12.26C1.8181 12.3299 1.55078 12.122 1.55078 11.8381V6.50333C1.55078 5.51324 2.21893 4.64787 3.1768 4.39735L7.31276 3.31564C8.69227 2.95484 10.0404 3.99571 10.0404 5.42162V6.52054V11.346C10.0404 11.7353 9.93598 12.1174 9.73808 12.4527L5.24233 20.0679C5.04503 20.4021 5.35057 20.8079 5.72629 20.7107L10.3884 19.5044C10.6641 19.4331 10.9329 19.6412 10.9329 19.9259V21.8357C10.9329 22.0337 10.7994 22.2067 10.6079 22.2569L4.2797 23.9161C2.89987 24.2779 1.55078 23.237 1.55078 21.8105V21.5248C1.55078 21.136 1.65494 20.7542 1.85242 20.4193L6.90887 11.8427C7.10635 11.5078 7.21051 11.126 7.21051 10.7372V7.29999C7.21051 6.72962 6.67127 6.31328 6.11946 6.4576L5.03105 6.74226C4.6479 6.84247 4.38064 7.18861 4.38064 7.58465V11.3407C4.38064 11.5399 4.24546 11.7137 4.0524 11.7627Z"/>
  <path d="M8.08203 18.6469V16.7013C8.08203 16.5023 8.21693 16.3286 8.40972 16.2794L10.3689 15.7794C10.6442 15.7091 10.9119 15.9171 10.9119 16.2012V18.1345C10.9119 18.3325 10.7783 18.5056 10.5867 18.5557L8.62755 19.0681C8.35165 19.1402 8.08203 18.9321 8.08203 18.6469Z"/>
  <path d="M14.2843 1.50396L12.3252 2.01635C12.1336 2.06645 12 2.23953 12 2.43755V4.36739C12 4.65258 12.2696 4.86075 12.5455 4.78859L14.5047 4.2762C14.6962 4.2261 14.8299 4.05302 14.8299 3.85501V1.92516C14.8299 1.63997 14.5602 1.4318 14.2843 1.50396Z"/>
  <path d="M12.3252 5.69498L14.2843 5.18259C14.5602 5.11043 14.8299 5.3186 14.8299 5.60379V17.2104C14.8299 17.7815 15.3704 18.198 15.9226 18.0524L18.9701 17.2489C19.3524 17.1481 19.6189 16.8024 19.6189 16.407V4.017C19.6189 3.46728 19.0982 3.06666 18.5668 3.20755L17.2924 3.54546C17.0162 3.6187 16.7455 3.41043 16.7455 3.12464V1.19559C16.7455 0.998117 16.8784 0.825377 17.0692 0.774766L19.6189 0.0987307L19.7211 0.0719886C21.1006 -0.288808 22.4487 0.752054 22.4487 2.17797V16.3378V19.1677V23.6972C22.4487 23.8644 22.3131 24 22.1459 24C22.0371 24 21.9366 23.9416 21.8827 23.847L19.806 20.1983C19.7085 20.027 19.508 19.9425 19.3172 19.9925L14.7287 21.1952C13.3489 21.5569 12 20.5159 12 19.0895V6.11618C12 5.91816 12.1336 5.74508 12.3252 5.69498Z"/>
</svg>
