<svg width="24" height="22" viewBox="0 0 24 22" fill="none" xmlns="http://www.w3.org/2000/svg">
  <path d="M3.12916 0.136026C2.08234 0.769232 0.0197553 3.1834 0 3.8165V4.86462C0 6.19318 1.21897 7.36073 2.32548 7.36073C3.65408 7.36073 4.76125 6.23874 4.76147 4.90719C4.76147 6.23863 5.83064 7.36073 7.15957 7.36073C8.48838 7.36073 9.52326 6.23874 9.52326 4.90719C9.52326 6.23863 10.6597 7.36073 11.9883 7.36073H12.0122C13.3408 7.36073 14.4784 6.23874 14.4784 4.90719C14.4784 6.23863 15.5128 7.36073 16.8414 7.36073C18.17 7.36073 19.2392 6.23874 19.2392 4.90719C19.2392 6.23863 20.3464 7.36073 21.675 7.36073C22.781 7.36073 24 6.19329 24 4.86462V3.8165C23.9794 3.1834 21.917 0.769232 20.8706 0.136026C17.6175 0.0195805 15.3608 -0.000435258 11.9992 7.07983e-06C8.63872 0.000228249 4.05483 0.0536405 3.12894 0.136026H3.12916ZM9.50654 6.73504C9.37946 6.96066 9.22207 7.16709 9.03893 7.34834C8.51907 7.86779 7.81978 8.15848 7.09162 8.15782C6.33343 8.15782 5.64188 7.84818 5.1404 7.34812C4.95913 7.16676 4.82127 6.9728 4.69428 6.74698V6.74743C4.56836 6.97368 4.39143 7.16743 4.21016 7.34901C3.68896 7.86837 2.98867 8.15887 2.2596 8.15815C2.16842 8.15815 2.07398 8.13272 1.99692 8.10618C1.89054 9.23967 1.84495 10.3223 1.82932 11.113V11.1174C1.82715 11.5188 1.82552 11.8484 1.82346 12.3062C1.84408 14.6848 1.59226 20.0139 2.85247 21.3232C4.80521 21.7877 8.39851 21.9989 12.004 22H12.0043C15.6095 21.9989 19.203 21.7877 21.1558 21.3243C22.416 20.0148 22.1642 14.6857 22.1848 12.3078C22.1829 11.85 22.1811 11.5202 22.179 11.119V11.1146C22.1628 10.3248 22.1177 9.24188 22.0108 8.10861C21.9337 8.13515 21.8385 8.16092 21.747 8.16092C21.0178 8.16162 20.3174 7.87118 19.7959 7.35188C19.6141 7.16997 19.4377 6.97622 19.3115 6.7503L19.3109 6.74953C19.1843 6.97512 19.0463 7.16942 18.8645 7.35066C18.363 7.85051 17.6716 8.16014 16.9136 8.16014C16.1556 8.16014 15.4678 7.85051 14.9663 7.35066C14.7832 7.16926 14.6258 6.96286 14.4985 6.73736C14.3729 6.96275 14.217 7.16918 14.0354 7.35066C13.5139 7.87033 12.8132 8.16095 12.0837 8.16014C12.0573 8.16014 12.0306 8.15904 12.0045 8.15793H12.0036C11.9773 8.15904 11.9509 8.16014 11.9244 8.16014C11.1661 8.16014 10.4746 7.85051 9.97296 7.35066C9.79119 7.1693 9.63518 6.96294 9.50947 6.73758L9.50654 6.73504ZM7.50257 9.37502L7.50235 9.37591H7.50453C8.29799 9.37768 9.00354 9.37591 9.87625 10.3472C10.5644 10.2739 11.2819 10.237 12.0016 10.2382H12.0027C12.7223 10.2371 13.4398 10.2747 14.128 10.3477C15.0018 9.37679 15.7062 9.379 16.4997 9.37679H16.5019V9.37569C16.8774 9.37569 18.3765 9.37569 19.4218 12.3659L20.545 16.4686C21.377 19.5207 20.2787 19.5959 18.9089 19.5981C16.8769 19.5218 15.7524 18.0179 15.7524 16.515C14.6278 16.703 13.3155 16.797 12.0037 16.797H12.0032C10.6913 16.797 9.37944 16.703 8.25512 16.515C8.25512 18.0179 7.13058 19.5207 5.09883 19.5981C3.72898 19.5959 2.6305 19.5207 3.46272 16.4697L4.58508 12.367C5.63037 9.37679 7.13048 9.37679 7.50496 9.37679L7.50257 9.37502ZM12.0007 11.7249V11.7257C11.9989 11.7276 9.86214 13.7268 9.4781 14.4379L10.8773 14.3808V15.6238C10.8773 15.6821 11.4389 15.6584 12.0007 15.632H12.0015C12.5634 15.6585 13.1249 15.6821 13.1249 15.6239V14.381L14.5241 14.4378C14.14 13.7267 12.0015 11.7257 12.0015 11.7257V11.7251L12.0012 11.7253L12.0007 11.7249Z" fill="currentColor"/>
</svg>
