<svg xmlns="http://www.w3.org/2000/svg" version="1.1" xmlns:xlink="http://www.w3.org/1999/xlink" width="1000" height="1000"><g clip-path="url(#SvgjsClipPath1799)"><rect width="1000" height="1000" fill="121212"></rect><g transform="matrix(1.953125,0,0,1.953125,0,0)"><svg xmlns="http://www.w3.org/2000/svg" version="1.1" xmlns:xlink="http://www.w3.org/1999/xlink" width="512" height="512"><svg width="512" height="512" viewBox="0 0 512 512" fill="none" xmlns="http://www.w3.org/2000/svg">
<rect width="512" height="512" fill="#121212"></rect>
<path d="M9.94727 478.163L88.5781 422.676L26.5508 496.791L107.007 442.527L67.1113 512H0V458.837L59.8438 419.703L9.94727 478.163ZM95.2637 512H69.7969L142.263 419.703L95.2637 512ZM121.407 512H100.053L146.081 459.337L121.407 512ZM141.763 512H132.423L150.208 488.666L141.763 512ZM167.442 512H156.138L171.214 488.666L167.442 512ZM193.711 512H188.289L196.777 494.215L193.711 512ZM220.169 512H209.306L225.115 470.687L220.169 512ZM233.581 512H232.181L233.24 508.086L233.581 512ZM254.886 512H252.967L254.246 503.33L254.886 512ZM276.068 512H271.732L273.864 495.602L276.068 512ZM385.069 65.7578L363.689 118.783L418.665 92.0576L385.069 130.997L454.552 109.619L406.448 150.851L459.896 130.997L418.665 172.996L479.748 159.249L433.172 197.43H479.748L433.172 222.623L493.477 234.562L437.754 252.405L484.33 279.889L433.172 283.71L493.477 333.897L512 338.754V345.251L493.477 338.852L418.665 302.035L471.153 342.703L406.448 330.282L452.304 375.335L397.286 355.483L437.754 411.222L377.434 375.335L415.595 437.946L367.508 385.262L380.871 446.379L339.257 396.71L358.345 450.926L320.168 406.641L339.257 466.197L296.498 406.641L301.211 478.758L305.366 512H293.811L296.498 480.343L275.883 406.641L250.686 475.708V406.641L218.659 470.687L222.435 411.222L188.839 462.379L195.711 396.71L163.642 455.508L173.567 396.71L142.263 442.527L156.77 396.71L120.121 434.892L146.081 380.675L97.9785 416.564L135.393 363.879L69.7275 396.71L120.121 350.134L55.2197 370.75L110.958 330.282L43.7666 336.392L97.9785 305.85L20.8604 319.594L94.3311 283.71L9.94727 276.463L91.8691 248.547L9.94727 218.354L0 216.987V207.182L11.96 212.378L91.8691 222.623L48.3467 193.608H97.9785L43.7666 159.249L107.14 177.576L59.7998 118.783L120.121 150.851L84.2334 92.0576L142.263 130.997L107.14 73.7314L163.642 109.619L142.263 47.0088L199.397 102.925L194.609 44.5498L175.683 0H195.136L199.397 39.9893L222.435 92.0576L227.779 24.8691L250.686 92.0576L275.883 29.4492L285.809 92.0576L307.951 32.877V85.9521L346.892 47.0088L343.739 105.66L380.68 63.4775L411.153 0H439.263L385.069 65.7578ZM318.434 512H316.778L316.866 506.501L318.434 512ZM337.618 512H331.005L328.559 492.232L337.618 512ZM364.622 512H356.273L351.744 488.666L364.622 512ZM395.274 512H378.66L363.238 463.895L395.274 512ZM430.619 512H410.23L398.115 475.708L430.619 512ZM453.149 512H435.966L413.771 472.02L453.149 512ZM494.154 512H459.552L438.938 469.245L494.154 512ZM512 471.494V512H494.962L455.98 458.544L509.485 492.232L467.87 450.926L512 471.494ZM512 439.465V465.554L433.191 388.987L512 439.465ZM0 455.527V430.108L38.6396 406.641L0 455.527ZM512 412.229V430.966L471.153 393.149L512 412.229ZM0 422.449V405.524L25.1641 396.71L0 422.449ZM512 393.045V398.435L497.397 387.402L512 393.045ZM0 392.28V376.256L36.8564 363.879L0 392.28ZM512 367.996V370.395L507.107 366.396L512 367.996ZM0 364.264V357.118L26.5508 348.363L0 364.264ZM0 342.53V332.652L31.2012 324.001L0 342.53ZM512 306.247V306.416L511.269 306.153L512 306.247ZM512 291.108L511.269 290.895L512 290.876V291.108ZM1.1875 276.463L0 276.744V276.301L1.1875 276.463ZM512 255.53L508.099 255.026L512 254.49V255.53ZM13.1924 252.405L0 254.351V250.332L13.1924 252.405ZM512 241.551H492.245L512 236.328V241.551ZM13.1924 230.96L0 232.008V227.378L13.1924 230.96ZM512 219.786L498.982 220.941L512 216.246V219.786ZM26.3252 200.977L0 196.174V185.68L26.3252 200.977ZM512 198.168L500.568 200.134L512 195.501V198.168ZM512 178.318L508.099 179.128L512 177.01V178.318ZM512 162.313L469.456 177.741L512 152.262V162.313ZM22.2207 176.35L0 172.661V166.661L22.2207 176.35ZM27.6934 163.124L0 157.107V146.489L27.6934 163.124ZM32.4824 140.549L0 131.893V122.131L32.4824 140.549ZM512 127.979L493.477 132.757L512 114.21V127.979ZM37.2705 125.955L0 113.89V95.2363L37.2705 125.955ZM40.0068 109.619L0 88.8154V67.3398L40.0068 109.619ZM512 96.2041L490.036 109.619L512 91.626V96.2041ZM512 78.8945L477.929 96.2959L512 64.4844V78.8945ZM131.218 73.7314L71.0186 3.27637L101.574 64.8438L48.3467 13.3096L79.6836 80.5781L32.4824 28.1318L63.0381 79.21L9.94727 44.5498L53.0049 94.7158L0 64.6035V0H95.7549L131.218 73.7314ZM512 57.5723L466.896 85.9521L512 33.6172V57.5723ZM512 33.4678L457.21 84.1875L495.956 22.0322L433.172 80.958L474.969 19.6094L420.616 73.9629L465.282 8.84766L401.243 75.5762L441.255 0H512V33.4678ZM363.689 60.2822L379.656 0H407.336L363.689 60.2822ZM245.003 54.127L229.827 0H245.003V54.127ZM178.647 52.7588L151.354 0H168.014L178.647 52.7588ZM290.837 52.7588L281.253 0H304.096L290.837 52.7588ZM222.435 49.7939L203.861 0H222.435V49.7939ZM138.287 47.0088L97.3242 0H121.486L138.287 47.0088ZM261.649 39.9893L252.694 0H269.833L261.649 39.9893ZM312.728 32.877V0H324.734L312.728 32.877ZM153.337 26.5361L132.634 0H144.865L153.337 26.5361ZM332.338 26.5361L333.848 0H347.484L332.338 26.5361ZM354.685 26.5361L357.956 0H371.849L354.685 26.5361Z" fill="#D90429"></path>
</svg></svg></g></g><defs><clipPath id="SvgjsClipPath1799"><rect width="1000" height="1000" x="0" y="0" rx="500" ry="500"></rect></clipPath></defs></svg>